<svg xmlns="http://www.w3.org/2000/svg" viewBox="0 0 268.42 269.85"><defs><style>.cls-1{fill:#fcd3c1;fill-rule:evenodd;}</style></defs><title>Asset 1</title><g id="Layer_2" data-name="Layer 2"><g id="Layer_1-2" data-name="Layer 1"><path class="cls-1" d="M191.31,115.09s9.92,26.11-17.49,22.19c12,6,17.23,2.09,17.23,2.09s11-7.31.26-24.28Z"/><path class="cls-1" d="M143.12,37.08c1.21,7.06-4.3,11.57-4.3,11.57s.37,1.65,2.81,2.4,2.67,2.71,1.84,4.21,2.2,2.25,2.2,2.25a1.81,1.81,0,0,0,1.15,2.26c1.68.75,2,3.45,2.35,5.7,2.41,13.63,25.59-8.09,27.69-12.31-5.8,6.74-23.05,20-25.2,11-1.1-4.65-8.55-13.79-5.2-20.86,4.28-9.06-10-12-1.23-29.36-5.32,5.48-7.53,12.56-2.11,23.18Z"/><path class="cls-1" d="M139.08,39.17a7.5,7.5,0,0,0,7.59,1.95,5.23,5.23,0,0,0,.2-2.25s-2,1.5-7.79.3Z"/><path class="cls-1" d="M168.22,64s6.34,5.58,1.54,20.38c5-2.69,5.76-18.84-1.54-20.38Z"/><path class="cls-1" d="M147.08,86.32c-10,4.21-8.25,59.6-12.86,60.75s-20.36-26-38.62-22.7c16.41,0,25.35,14.44,33.43,22.89,2,2.12,3.76,3,5.45,2.37,5.09-1.79,2.07-30.3,12.6-63.31Z"/><path class="cls-1" d="M153.4,142.9c.31,3.19.62,8,4.95,19.44s1.35,20.17,1.35,20.17a29,29,0,0,0,2.15-14.86c-.86-7.93-3.51-9.36-5.27-14.29-2.71-7.53.48-14.29-1.2-15.08s-12.31,2.39-11.81-11.43c1.13-7.28,7.54-16.95,7.41-16.95s-9,13.44-9.92,18.84.25,10.89,12.34,14.16Z"/><path class="cls-1" d="M195.44,223.27s-78.87-86.32-85.1-87.71S99.49,140,99.49,140s8.31-5.31,12.92-.7,82.8,84,83,84Z"/><path class="cls-1" d="M96.49,142.72c-16.92,30.44-35.26,56.51-60.27,80.44-10.94,10.46-19.38,19.53-23.52,25.5C6.93,257,.23,257,.23,257s-2.31,3.24,7.62,3.24c-3.46-2.54-7.16-1.16,2.54-6.7s8.77-13.85,23.77-26.08S76.87,190,96.49,142.72Z"/><path class="cls-1" d="M19.85,258.82s2.28,2.09,9.4-4.39c3.64-3.31,15.46-2.76,14.61-7.84-.93-5.54-6.46-10.39,2.31-16.39-5.77,5.54-3.7,6.92-1.39,12.23,5.59,12.85-8.14,6.74-15.26,13-3.22,2.81-5.88,5.4-9.67,3.43Z"/><path class="cls-1" d="M49.51,227.55c1.59-.71,35.63-15.43,44.85-28.9s12-25.88,14.53-27.47c2.23-1.44,22,29.66,26,62.9-4.53-13.33-17.85-54.93-24.77-53.33-2.31.53-1.42,26.06-60.63,46.8Z"/><path class="cls-1" d="M172.46,136.65s4.64,5.65,14.81,2.26,7.92-14.94,5.4-20.47-2.76-5.9-2.76-5.9,12.68,14.44,4.15,25.37-19.22,1.88-21.6-1.26Z"/><path class="cls-1" d="M179.11,97.47a28.13,28.13,0,0,1,19.47-8.92c-9.17-1.13-18.46,4.27-20.22,6.41s.88,2.51.75,2.51Z"/><path class="cls-1" d="M205.69,77.55s9.38-3.13,12.77,6.25-1.3,74.76-.26,80.23,14.21,53.32,16.82,73.9c-3.65-22.41-21.25-72.34-21-77,.21-3.73,3.39-42,3.36-61.14,0-8.2-.64-22.21-11.7-22.21Z"/><path class="cls-1" d="M71.63,247.8c-8.2,28.11,23.2,21.69,27.9,20.8,28.75-5.47,56.32-7.74,86-5.28,15.08,1.25,27.47,1.55,34.69.7,10-1.19,14.48,3.82,14.48,3.82s4-.41-2.63-7.85c.4,4.28,3.88,6.13-6.69,2.54s-16.19,2.62-35.29-.51c-16.94-2.77-48.16-6.23-88.74,4.62-5.18,1.39-33.69,8.45-29.68-18.84Z"/><path class="cls-1" d="M223,251.93a.72.72,0,0,0,0-.17c-.15-.66-1.27-3.06-9.5-4-4.88-.53-12.3-9.74-15.54-5.73-3.54,4.36-3.5,11.72-13.8,9.13,8,.65,7.63-1.82,10.07-7.07,5.92-12.7,10.44,1.63,19.82,2.83,4.24.55,7.94.83,9,5Z"/><path class="cls-1" d="M75.53,242.5c28.57-27.62,93.39,3.29,101.72,6.86-12.62-3.53-39.07-15.06-71.65-14.31-11.09.25-21.61,2.64-30.07,7.45Z"/><path class="cls-1" d="M208.37,139.21s-4.26,23.25-1.31,39.3,18.34,39.3,19,52.4-4.26,16-4.26,16,9.17-16-9.17-41.59-4.25-66.15-4.25-66.15Z"/><path class="cls-1" d="M69.89,151.83a29.19,29.19,0,0,0,7.57-12.73L93,125.57c-4.1,4.27-10.84,10.66-14.2,13.6-1.28,3.07-4.14,9.09-8.86,12.66Zm33.24-23.72a8.35,8.35,0,0,1-2.65,7.82c-3.75,3.36-5.09,3.46-8,7.33s-6.32,4.35-6.32,4.35-1-.34,1.2-2.62,5.11-7.16,4.14-8.13-11.39,4.85-11.89,5.49-4.51,8.38-8.22,9.68l-1.41.43s2.91,1.27,8.17-5c2-3.26,2.48-3.48,2.48-3.48l1.74-.62-2.78,4.23-4.92,8.08s3.76-1.37,7.09-8.56c1.17-1.64,2.68-3.38,2.68-3.38l-2.32,3.75.1,8s2.11-5.12,1.12-7.72a20.79,20.79,0,0,1,3-2.92s-1.9,2.71-.7,3.16,4.27.08,9.46-7c5.47-2.9,11.9-6.92,8-12.85Z"/><path class="cls-1" d="M268.15,249.6a29.14,29.14,0,0,1-12.83-7.39L235.19,238c5.66,1.71,14.67,4,19,4.91,2.62,2,8.07,5.9,13.93,6.7Zm-40.6-4.41a8.36,8.36,0,0,0,6.14,5.52c4.91,1.1,6.14.53,10.61,2.45s7.64.71,7.64.71.7-.8-2.33-1.71-8-3.73-7.59-5,12.31-1.36,13-1,8,5.09,11.91,4.41l1.44-.32s-1.92,2.54-9.57-.36C255.47,248,255,248,255,248l-1.82.31,4.5,2.33,8.24,4.63s-3.95.65-10.38-4c-1.82-.87-4-1.64-4-1.64l3.87,2.13,3.83,7s-4.35-3.43-4.76-6.18a19.72,19.72,0,0,0-4.09-1.05s3,1.43,2.16,2.41-3.69,2.16-11.69-1.51c-6.2.15-13.77-.21-13.3-7.27Z"/><path class="cls-1" d="M146.63,12.79S155.52-.18,174.42,0s34.65,17.05,38,40S215.74,73.56,233,72.82c-8.52,2-20.38,1.3-23-18.34S206.66,7.6,178.12,2.6C169.6,1.48,162.19,0,146.63,12.79Z"/><path class="cls-1" d="M146,15.25s-8.3,17.69,16.78,24.88,21.2,39.09,14.93,48.12c8.31-11.84,8.86-20.58,6.54-28.91C175.61,28.53,141.51,45,146,15.25Z"/></g></g></svg>